# xmcd
#
# Track frame offsets: 
#        150
#        30700
#        50375
#        66025
#        96950
#        110725
#        138225
#        161250
#        174400
#        202575
#        216000
#        247075
#
# Disc length: 3785 seconds
#
# Revision: 1
# Processed by: cddbd v1.5.2PL0 Copyright (c) Steve Scherf et al.
# Submitted via: ExactAudioCopyFreeDBPlugin 1.0
#
DISCID=9f0ec70c
DTITLE=Devakant - Sacred Dances
DYEAR=1995
DGENRE=New Age
TTITLE0=Initiation
TTITLE1=Obligatory
TTITLE2=Bhaktash Whirling
TTITLE3=Crystallization
TTITLE4=The Drunkard
TTITLE5=Messengers From Above
TTITLE6=As Above So Below
TTITLE7=The Truth Within
TTITLE8=Centering
TTITLE9=Hoo Yah
TTITLE10=Prayer
TTITLE11=Circles (A Wish To Be)
EXTD=YEAR: 1995
EXTT0=
EXTT1=
EXTT2=
EXTT3=
EXTT4=
EXTT5=
EXTT6=
EXTT7=
EXTT8=
EXTT9=
EXTT10=
EXTT11=
PLAYORDER=
